<svg xmlns="http://www.w3.org/2000/svg" width="74" height="18" fill="#889099" fill-rule="evenodd"><path d="M73.117 1.405h-1.129c-.722 0-1.259.485-1.675 1.077l-1.117 1.592-2.421 3.448-2.098-2.986-.025-.044-1.413-2.006c-.417-.591-.959-1.075-1.681-1.075h-1.047c-.723 0-1.191.484-.772 1.073l1.421 2.01 4.056 5.725v6.467A1.32 1.32 0 0066.531 18l.49-.001a1.32 1.32 0 001.314-1.318v-6.468l4.31-6.084.043-.053 1.127-1.596c.418-.591.025-1.075-.698-1.075zM25.954 9.181l4.06-3.908 2.87-2.761c.513-.495-.039-1.106-.742-1.106h-1.544c-.703 0-1.058.406-1.57.902l-3.005 2.913-1.941 1.883V4.978h-.008l.008-.085v-2.17c0-.724-.575-1.317-1.278-1.317h-.574c-.703 0-1.278.593-1.278 1.317v2.171c0 .029.006.056.008.085h-.008v11.704c0 .724.575 1.317 1.278 1.317h.574c.703 0 1.278-.593 1.278-1.317v-5.241l2.755 2.835h.003l2.712 2.793c.497.511.84.93 1.543.93h1.546c.703 0 1.002-.857.505-1.368l-7.192-7.451zm30.565 1.624h-3.025c-.363 0-.548-.274-.412-.61L54.753 6.1c.137-.336.361-.336.499-.001l1.678 4.096c.138.335-.048.609-.411.609zm6.076 5.552h.008L57.329 3.244h-.002l-.247-.616c-.27-.673-1.085-1.223-1.812-1.223h-.524a2.11 2.11 0 00-1.809 1.225l-.244.615h-.009l-5.254 13.044h.002l-.198.49c-.272.672.102 1.222.828 1.222h1.176c.726 0 1.068-.555 1.32-1.235l.177-.477h.007l1.062-2.824h6.422l.087.227.064.135.947 2.532h.003l.152.408c.253.679.697 1.235 1.424 1.235h1.04c.727 0 1.099-.549.825-1.221l-.171-.422zM46.249 7.63a2.008 2.008 0 01-.536.774l.003-.003-.002.003c-.476.42-1.184.648-2.138.648h-1.723a.667.667 0 01-.671-.659V4.7c0-.362.302-.659.671-.659h1.723c.954 0 1.663.229 2.138.649.238.21.414.464.536.772s.183.666.183 1.079-.063.779-.183 1.088zm3.111 1.128c.269-.647.401-1.388.401-2.216 0-.822-.133-1.558-.401-2.201a4.17 4.17 0 00-1.206-1.634c-1.063-.874-2.61-1.302-4.578-1.302h-4.259c-.737 0-1.341.593-1.341 1.317v13.96c0 .724.604 1.317 1.341 1.317h.524c.737 0 1.341-.593 1.341-1.317v-4.994h2.394c1.968 0 3.516-.424 4.578-1.296.534-.438.94-.989 1.207-1.634zM15 13.66c-.44.551-.943.954-1.524 1.221s-1.245.403-2.005.403-1.427-.136-2.01-.403-1.091-.674-1.535-1.225c-.521-.643-.888-1.448-1.111-2.398L6.61 9.875l-.013-.446-.006-.595.004-.333.159-1.383c.207-1.081.598-1.987 1.172-2.7l-.002.004h.002c.444-.556.949-.959 1.535-1.225s1.248-.403 2.01-.403 1.424.135 2.005.403 1.084.67 1.524 1.221c.88 1.103 1.337 2.651 1.337 4.625S15.88 12.556 15 13.659zm2.424-11.118C15.938.905 13.917.073 11.47.078 9.011.073 6.986.905 5.499 2.541 4.404 3.74 3.711 5.258 3.426 7.052v.005L3.293 8.47v.009l-.019.565.03.866v.009l.181 1.413v.005c.314 1.658.98 3.076 2.014 4.209C6.986 17.173 9.011 18.005 11.47 18c2.447.005 4.468-.827 5.954-2.463 1.476-1.624 2.219-3.82 2.219-6.493s-.74-4.879-2.219-6.502z"/><path d="M11.427 8.043H.655l1.013-1.991H12.44l-1.014 1.991zm-2.018 3.983H0l1.067-1.992h9.409l-1.068 1.992z"/></svg>/></svg>