<svg xmlns="http://www.w3.org/2000/svg" width="66" height="52" fill="#889099"><path fill-rule="evenodd" d="M62.81 48.468v-4.844h-1.124v2.81A2.04 2.04 0 0060 45.647a2.81 2.81 0 000 5.62 2.04 2.04 0 001.686-.787v.652h1.124v-2.664zm-34.843-2.686h1.922l.011 1.068h-1.911v2.45c0 .539.214.899.776.899a2.16 2.16 0 001.034-.303l.337 1a2.74 2.74 0 01-1.461.416c-1.383 0-1.866-.742-1.866-1.989V46.85h-1.09v-1.068h1.068v-1.63h1.18v1.63zm-15.539 2.001v3.372l-1.18.023v-2.99c0-.91-.382-1.416-1.18-1.416a1.267 1.267 0 00-1.315 1.427v2.979h-1.18v-2.99c0-.91-.393-1.416-1.169-1.416a1.26 1.26 0 00-1.315 1.427v2.956h-1.18v-5.373h1.169v.663c.346-.526.945-.83 1.574-.798a1.974 1.974 0 011.776.955 2.08 2.08 0 011.888-.955 2 2 0 012.113 2.136zm27.43-2.136a1.584 1.584 0 00-1.416.787v-.652h-1.158v5.373h1.169v-3.012c0-.888.382-1.382 1.124-1.382.25-.003.498.042.731.135l.36-1.124a2.5 2.5 0 00-.832-.146l.022.022zm-17.264 0a4.02 4.02 0 012.192.562l-.517.944a3.46 3.46 0 00-1.686-.461c-.641 0-1.023.27-1.023.63s.405.461.91.528l.562.079c1.169.169 1.877.584 1.877 1.607s-.899 1.753-2.45 1.753a3.88 3.88 0 01-2.327-.697l.562-.91a2.86 2.86 0 001.787.562c.798 0 1.225-.236 1.225-.652 0-.303-.303-.472-.944-.562l-.562-.079c-1.203-.169-1.855-.708-1.855-1.585 0-1.068.888-1.72 2.248-1.72zm33.5 0a1.584 1.584 0 00-1.416.787v-.652H53.52v5.373h1.169v-3.012c0-.888.382-1.382 1.124-1.382.25-.003.498.042.731.135l.36-1.124a2.5 2.5 0 00-.832-.146l.022.022zm-14.249 4.848a2.717 2.717 0 01-.812-2.038v-.023a2.717 2.717 0 012.866-2.81 2.81 2.81 0 011.933.641l-.562.944a2.36 2.36 0 00-1.405-.483 1.725 1.725 0 000 3.44 2.36 2.36 0 001.405-.483l.562.944a2.81 2.81 0 01-1.933.641 2.715 2.715 0 01-2.054-.772zm10.135-2.038v-2.675h-1.169v.652a2.04 2.04 0 00-1.686-.787 2.81 2.81 0 000 5.62 2.04 2.04 0 001.686-.787v.652h1.169v-2.675zm-2.667-1.528a1.624 1.624 0 00-1.682 1.528 1.614 1.614 0 001.63 1.719 1.624 1.624 0 00.052-3.247zm-15.788-1.282a2.81 2.81 0 10.079 5.62 3.267 3.267 0 002.231-.731l-.562-.865a2.553 2.553 0 01-1.562.562 1.49 1.49 0 01-1.607-1.315h3.99v-.45c0-1.686-1.045-2.81-2.551-2.81l-.017-.011zm.95 1.416a1.33 1.33 0 00-.95-.37h-.023a1.381 1.381 0 00-1.427 1.304h2.81a1.33 1.33 0 00-.41-.934zm30.299 3.311a.574.574 0 01.2.039.56.56 0 01.292.281.519.519 0 010 .416.56.56 0 01-.292.281.53.53 0 01-.214.045.56.56 0 01-.506-.326.53.53 0 010-.416.585.585 0 01.118-.169.56.56 0 01.405-.152h-.003zm-.009.95a.4.4 0 00.158-.034.42.42 0 00.129-.09.415.415 0 000-.562.411.411 0 00-.292-.124.418.418 0 00-.163.034.41.41 0 00-.135.09.415.415 0 000 .562.427.427 0 00.315.124h-.012zm.175-.624a.226.226 0 00-.146-.045l-.236.006v.495h.107v-.185h.051l.152.185h.129l-.163-.185a.194.194 0 00.118-.051.132.132 0 00.039-.101.14.14 0 00-.05-.118zm-.27.051v.135h.124a.11.11 0 00.067 0 .057.057 0 000-.051.055.055 0 000-.05.11.11 0 00-.067 0l-.124-.034zm-4.5-3.809a1.624 1.624 0 00-1.682 1.527 1.614 1.614 0 001.63 1.719 1.624 1.624 0 00.052-3.247zm-41.15 1.527v-2.686h-1.169v.652a2.04 2.04 0 00-1.686-.787 2.81 2.81 0 000 5.62 2.04 2.04 0 001.686-.787v.652h1.169v-2.664zm-2.668-1.527a1.624 1.624 0 00-1.682 1.527h-.011a1.613 1.613 0 001.641 1.72 1.623 1.623 0 00.053-3.247z"/><path opacity=".4" d="M25.522 20.751a20.2 20.2 0 017.727-15.91C24.955-1.678 13.043-.728 5.885 7.023s-7.158 19.7 0 27.451 19.069 8.7 27.364 2.181a20.2 20.2 0 01-7.727-15.904z"/><path d="M65.985 20.751A20.23 20.23 0 0133.25 36.655a20.23 20.23 0 000-31.814 20.23 20.23 0 0132.736 15.904v.006z"/><path opacity=".65" d="M33.43 37.179c-4.865-3.748-8-9.633-8-16.249s3.135-12.501 8-16.249c4.865 3.748 8 9.633 8 16.249s-3.135 12.501-8 16.249z"/><path fill-rule="evenodd" d="M64.052 32.632v.652h-.118v-.652h-.287v-.135h.669v.135h-.264zm1.298-.135v.787l-.118.006v-.596l-.219.511h-.152l-.219-.511v.59h-.146v-.787h.18l.236.562.236-.562h.202z"/></svg>.135h-.264zm1.298-.135v.787l-.118.006v-.596l-.219.511h-.152l-.219-.511v.59h-.146v-.787h.18l.236.562.236-.562h.202z"/></svg>