<?xml version="1.0" encoding="utf-8"?><svg xmlns="http://www.w3.org/2000/svg" xmlns:xlink="http://www.w3.org/1999/xlink" width="79" height="24" fill="none" viewBox="0 0 79 24"><g fill-rule="evenodd" fill="#889099"><path d="M24.067 4.958c.666 0 1.24.118 1.723.352s.886.552 1.207.951.553.869.705 1.405.227 1.116.227 1.736c0 .951-.175 1.85-.529 2.696s-.833 1.584-1.444 2.211a6.78 6.78 0 01-2.16 1.486 6.61 6.61 0 01-2.698.548c-.125 0-.345-.003-.656-.01a9.74 9.74 0 01-1.068-.092c-.4-.054-.828-.138-1.278-.249a6.43 6.43 0 01-1.278-.455L20.412.517 23.63.02l-1.286 5.33c.275-.123.553-.219.83-.289a3.64 3.64 0 01.893-.104zm-2.699 8.845a2.83 2.83 0 001.37-.351 3.59 3.59 0 001.112-.94 4.73 4.73 0 00.737-1.333c.18-.496.27-1.012.27-1.55 0-.661-.111-1.177-.332-1.549s-.631-.558-1.226-.558c-.195 0-.446.037-.757.103a1.91 1.91 0 00-.843.435l-1.37 5.661.218.041a1.72 1.72 0 00.195.031c.071.008.152.012.25.012h.374zm9.9 2.251h-3.074L30.79 5.187h3.095l-2.617 10.867zm1.495-12.19c-.429 0-.818-.128-1.163-.382s-.521-.643-.521-1.168a1.93 1.93 0 01.176-.815 2.15 2.15 0 01.468-.662 2.31 2.31 0 01.674-.445c.257-.11.53-.164.822-.164a1.91 1.91 0 011.162.382c.346.255.519.645.519 1.167 0 .29-.058.562-.177.817a2.16 2.16 0 01-.467.662 2.247 2.247 0 01-.674.443 2.05 2.05 0 01-.82.164zm3.815-1.383l3.22-.496-.791 3.203h3.448l-.623 2.52h-3.427l-.913 3.802a4.27 4.27 0 00-.145.887c-.013.274.02.514.103.713s.231.354.447.464.522.166.924.166a4.9 4.9 0 00.967-.094c.31-.061.625-.146.944-.258l.229 2.357c-.415.152-.865.282-1.35.392s-1.06.164-1.724.164c-.955 0-1.695-.14-2.222-.421s-.899-.669-1.122-1.159-.318-1.049-.29-1.683.125-1.302.29-2.005l2.037-8.552zm5.741 9.235c0-.936.152-1.818.457-2.645s.742-1.55 1.31-2.171 1.255-1.107 2.067-1.466 1.712-.538 2.709-.538c.624 0 1.181.058 1.671.176s.938.272 1.34.464l-1.06 2.398-.861-.3c-.298-.091-.661-.135-1.09-.135-1.026 0-1.837.352-2.44 1.053s-.904 1.646-.904 2.832c0 .703.152 1.27.458 1.705s.866.65 1.681.65a5.42 5.42 0 001.163-.123c.375-.083.706-.186.997-.31l.229 2.458a11.21 11.21 0 01-1.288.405c-.471.119-1.032.174-1.683.174-.858 0-1.586-.124-2.18-.371s-1.087-.582-1.474-1.003-.669-.914-.842-1.478a6.02 6.02 0 01-.261-1.774zm13.653 4.627c-.734 0-1.371-.111-1.911-.331s-.985-.529-1.338-.93-.618-.871-.8-1.415-.268-1.146-.268-1.806c0-.828.134-1.656.404-2.481s.667-1.569 1.195-2.23a6.37 6.37 0 011.93-1.624c.76-.418 1.634-.629 2.615-.629.72 0 1.354.111 1.902.331a3.54 3.54 0 011.35.93 4.03 4.03 0 01.798 1.416c.181.542.27 1.146.27 1.807a8.2 8.2 0 01-.393 2.481 7.15 7.15 0 01-1.163 2.23 6.09 6.09 0 01-1.921 1.622c-.769.419-1.66.63-2.67.63zm1.536-8.842c-.456 0-.858.132-1.204.392a3.38 3.38 0 00-.871.992 4.86 4.86 0 00-.531 1.312 5.64 5.64 0 00-.175 1.353c0 .689.112 1.226.331 1.613s.623.578 1.205.578c.457 0 .858-.131 1.205-.393s.635-.591.871-.991a4.88 4.88 0 00.531-1.312c.118-.475.175-.927.175-1.353 0-.688-.111-1.226-.333-1.612s-.624-.578-1.205-.578zm7.96 8.553h-3.076l2.596-10.867h3.096l-2.616 10.867zm1.493-12.19c-.429 0-.817-.128-1.162-.382s-.521-.643-.521-1.168c0-.289.059-.56.177-.815a2.15 2.15 0 01.468-.662 2.31 2.31 0 01.675-.445c.255-.112.529-.164.819-.164.43 0 .818.127 1.164.382s.52.645.52 1.167a1.95 1.95 0 01-.178.817 2.15 2.15 0 01-.466.662 2.29 2.29 0 01-.674.443c-.257.111-.53.164-.823.164zm3.336 1.818l.778-.238.957-.246a11.66 11.66 0 011.183-.187c.436-.049.932-.073 1.484-.073 1.621 0 2.738.469 3.355 1.406s.723 2.218.323 3.842l-1.413 5.867H73.87l1.37-5.744.197-1.044a2.462 2.462 0 00-.011-.887 1.06 1.06 0 00-.383-.62c-.203-.159-.51-.237-.926-.237a6.28 6.28 0 00-1.225.126l-2.015 8.408h-3.095l2.513-10.371zM33.161 22.53l-.603 1.09h-.652l1.345-2.277 1.295-1.965h.585l.169.928.151.983.142 1.09.142 1.243h-.603l-.055-.554-.055-.536h-1.858zm1.803-.478l-.114-.986-.151-1.01-.535.805-.726 1.191h1.526zm2.95 1.659a1.97 1.97 0 01-.705-.116 1.362 1.362 0 01-.508-.331 1.37 1.37 0 01-.305-.517 2.136 2.136 0 01-.102-.683 3.17 3.17 0 01.175-1.053c.117-.334.283-.63.498-.887a2.44 2.44 0 01.779-.616 2.22 2.22 0 011.015-.23c.32 0 .575.033.766.098s.327.127.409.184l-.246.49a1.767 1.767 0 00-.96-.258c-.283 0-.537.066-.763.199s-.416.304-.572.514a2.36 2.36 0 00-.357.71 2.61 2.61 0 00-.123.781c0 .796.347 1.194 1.04 1.194a2.32 2.32 0 00.397-.031c.117-.02.221-.044.311-.07s.17-.056.24-.089l.185-.086.074.514a1.574 1.574 0 01-.194.092 2.45 2.45 0 01-.28.092 3 3 0 01-.357.07 3.08 3.08 0 01-.418.027zm3.457 0a1.98 1.98 0 01-.705-.116 1.35 1.35 0 01-.508-.331 1.37 1.37 0 01-.305-.517 2.136 2.136 0 01-.102-.683 3.17 3.17 0 01.175-1.053c.117-.334.283-.63.498-.887a2.44 2.44 0 01.778-.616 2.22 2.22 0 011.015-.23c.32 0 .575.033.766.098s.327.127.409.184l-.246.49a1.77 1.77 0 00-.385-.175 1.794 1.794 0 00-.575-.083c-.283 0-.537.066-.763.199a1.91 1.91 0 00-.572.514c-.156.21-.275.447-.357.71s-.123.524-.123.781c0 .796.347 1.194 1.04 1.194a2.32 2.32 0 00.397-.031 2.74 2.74 0 00.311-.07 1.63 1.63 0 00.24-.089l.185-.086.074.514a1.574 1.574 0 01-.194.092 2.46 2.46 0 01-.28.092 3.054 3.054 0 01-.357.07 3.08 3.08 0 01-.418.027z"/><use xlink:href="#cB"/><path d="M48.344 19.334c.496 0 .871.094 1.123.282s.378.461.378.82c0 .277-.052.518-.157.719s-.253.368-.446.499-.425.227-.695.29a3.98 3.98 0 01-.905.095h-.425l-.381 1.58h-.597l1.009-4.188a3.27 3.27 0 01.548-.08l.548-.019zm-.074.502l-.529.024-.406 1.684h.388a3.11 3.11 0 00.529-.046 1.58 1.58 0 00.486-.162c.144-.078.262-.185.354-.322s.139-.313.139-.529c0-.233-.086-.399-.258-.499s-.406-.15-.702-.15zm5.216-.459l-.117.496h-1.286l-.905 3.747h-.597l.905-3.747H50.2l.117-.496h3.169z"/><use xlink:href="#cB" x="9.908"/><path d="M58.243 19.334c.632 0 1.103.148 1.415.444s.468.695.468 1.197a3.11 3.11 0 01-.166 1.013 2.36 2.36 0 01-.517.861c-.234.25-.532.447-.895.594s-.797.22-1.302.22a6.96 6.96 0 01-.56-.024 2.937 2.937 0 01-.529-.086l.991-4.12a3.27 3.27 0 01.548-.08l.548-.018zm-.049.502l-.554.024-.788 3.269c.033.008.088.015.166.021a5.54 5.54 0 00.382.009c.324 0 .616-.053.877-.162s.481-.259.661-.454a2.03 2.03 0 00.419-.691 2.51 2.51 0 00.148-.879c0-.359-.105-.639-.314-.839s-.541-.3-.997-.3zm6.529 3.783h-.597l.474-1.971h-1.975l-.474 1.971h-.597l1.022-4.243h.597l-.431 1.776h1.976l.431-1.776h.597l-1.022 4.243zm.941 0l1.021-4.243h2.517l-.118.496h-1.926l-.308 1.28h1.711l-.117.484H66.74l-.363 1.488h2.067l-.117.496h-2.663zm5.32-4.285c.455 0 .816.092 1.083.276s.4.453.4.808-.105.661-.316.904-.508.417-.889.523l.172.328.203.441.203.502.172.505h-.609l-.178-.471-.187-.459-.191-.413-.175-.34-.16.009-.16.003h-.474l-.4 1.671h-.597l1.01-4.188c.172-.041.354-.067.548-.08l.547-.018zm-.074.502l-.53.024-.388 1.605h.364a3.68 3.68 0 00.517-.037 1.58 1.58 0 00.483-.144c.145-.072.265-.171.357-.3s.139-.299.139-.511c0-.229-.087-.392-.261-.49s-.402-.147-.68-.147zm1.602 3.783l1.022-4.243h2.517l-.117.496h-1.926l-.308 1.28h1.711l-.118.484h-1.705l-.363 1.488h2.067l-.117.496h-2.663zM8.228 16.342c4.53 0 8.202-3.653 8.202-8.16S12.758.021 8.228.021.026 3.675.026 8.182s3.672 8.16 8.202 8.16zM10.04 4.959c1.136.39 1.968.973 1.805 2.06-.118.795-.561 1.18-1.15 1.315.808.418 1.219 1.06.827 2.172-.486 1.382-1.64 1.498-3.175 1.209L7.973 13.2l-.9-.223.368-1.465-.717-.185-.369 1.472-.899-.224.372-1.488-.239-.062-.402-.103-1.171-.29.447-1.026s.664.175.654.162c.255.063.368-.103.413-.212l.589-2.349.013.003.082.021a.615.615 0 00-.094-.03l.42-1.676c.011-.19-.055-.43-.419-.521.014-.01-.654-.162-.654-.162l.239-.957 1.242.308-.001.005.575.135.369-1.471.899.223-.362 1.442.722.169.359-1.433.9.223-.369 1.472zm-.252 4.93c-.256 1.021-1.861.598-2.596.405l-.175-.045.494-1.971.221.051c.76.17 2.317.517 2.055 1.561zM7.886 7.413c.613.162 1.947.516 2.18-.411.237-.948-1.059-1.234-1.693-1.374l-.187-.043-.448 1.789.149.039z"/></g><defs><path id="cB" d="M43.024 23.619l1.021-4.243h2.517l-.117.496h-1.926l-.308 1.28h1.711l-.117.484H44.1l-.363 1.488h2.068l-.117.496h-2.665z"/></defs></svg>