<?xml version="1.0" encoding="utf-8"?><svg xmlns="http://www.w3.org/2000/svg" width="660" height="204" fill="#889099" viewBox="0 0 660 204"><path d="M233.2 200.73L266.559 4.97h53.358l-33.384 195.76H233.2zM479.31 9.19C468.741 5.224 452.175.968 431.489.968c-52.726 0-89.863 26.551-90.181 64.604-.297 28.129 26.515 43.822 46.754 53.185 20.771 9.598 27.752 15.716 27.652 24.283-.133 13.123-16.586 19.115-31.924 19.115-21.355 0-32.701-2.967-50.225-10.273l-6.878-3.111-7.487 43.822c12.463 5.467 35.508 10.199 59.438 10.445 56.09 0 92.502-26.248 92.916-66.885.199-22.27-14.016-39.215-44.801-53.188-18.65-9.056-30.072-15.099-29.951-24.269 0-8.137 9.668-16.838 30.56-16.838 17.446-.271 30.088 3.534 39.936 7.5l4.781 2.259L479.31 9.19zm137.31-4.223h-41.23c-12.772 0-22.332 3.486-27.94 16.234l-79.245 179.4h56.031l11.231-29.418 68.336.084 6.492 29.334h49.512L616.62 4.961v.006zm-65.417 126.41l21.26-54.724c-.314.521 4.381-11.334 7.074-18.684l3.606 16.878 12.353 56.527h-44.293v.003zm-363.3-126.41l-52.239 133.5-5.565-27.129c-9.726-31.274-40.025-65.157-73.898-82.12l47.767 171.2 56.455-.063 84.004-195.39-56.524-.001"/><path d="M86.92 4.96H.879L.197 9.033c66.939 16.204 111.23 55.363 129.62 102.42l-18.709-89.96C107.879 9.097 98.511 5.397 86.922 4.965"/></svg>